<svg xmlns="http://www.w3.org/2000/svg" width="800" height="460" viewBox="0 0 800 460" role="img" aria-labelledby="title desc">
<title id="title">Median runtime (ms) versus Shots</title><desc id="desc">Release-build medians generated from retained Clio benchmark records.</desc>
<style>text{font:14px sans-serif;fill:#222} .axis{stroke:#444;stroke-width:1.5} polyline{fill:none;stroke:#1769aa;stroke-width:2.5} circle{fill:#1769aa}</style>
<line class="axis" x1="90" y1="390" x2="770" y2="390"/><line class="axis" x1="90" y1="30" x2="90" y2="390"/>
<polyline points="90.66,387.41 100.62,384.39 132.50,371.96 260.00,295.16 770.00,30.00"/><circle cx="90.66" cy="387.41" r="4"/><text x="90.66" y="377.41" text-anchor="middle">0.0181</text><circle cx="100.62" cy="384.39" r="4"/><text x="100.62" y="374.39" text-anchor="middle">0.0391</text><circle cx="132.50" cy="371.96" r="4"/><text x="132.50" y="361.96" text-anchor="middle">0.126</text><circle cx="260.00" cy="295.16" r="4"/><text x="260.00" y="285.16" text-anchor="middle">0.661</text><circle cx="770.00" cy="30.00" r="4"/><text x="770.00" y="20.00" text-anchor="middle">2.51</text><text x="90.66" y="414" text-anchor="middle">1</text><text x="100.62" y="414" text-anchor="middle">16</text><text x="132.50" y="414" text-anchor="middle">64</text><text x="260.00" y="414" text-anchor="middle">256</text><text x="770.00" y="414" text-anchor="middle">1024</text>
<text x="430.0" y="442" text-anchor="middle">Shots</text>
<text transform="translate(24 210.0) rotate(-90)" text-anchor="middle">Median runtime (ms)</text>
<text x="82" y="35" text-anchor="end">2.51</text><text x="82" y="395" text-anchor="end">0</text>
</svg>