<svg xmlns="http://www.w3.org/2000/svg" width="800" height="460" viewBox="0 0 800 460" role="img" aria-labelledby="title desc">
<title id="title">Median runtime (ms) versus Allocated qubits</title><desc id="desc">Release-build medians generated from retained Clio benchmark records.</desc>
<style>text{font:14px sans-serif;fill:#222} .axis{stroke:#444;stroke-width:1.5} polyline{fill:none;stroke:#1769aa;stroke-width:2.5} circle{fill:#1769aa}</style>
<line class="axis" x1="90" y1="390" x2="770" y2="390"/><line class="axis" x1="90" y1="30" x2="90" y2="390"/>
<polyline points="158.00,339.61 226.00,356.50 294.00,355.59 362.00,351.57 430.00,349.70 498.00,343.06 566.00,299.95 634.00,251.76 702.00,210.93 770.00,30.00"/><circle cx="158.00" cy="339.61" r="4"/><text x="158.00" y="329.61" text-anchor="middle">0.053</text><circle cx="226.00" cy="356.50" r="4"/><text x="226.00" y="346.50" text-anchor="middle">0.0352</text><circle cx="294.00" cy="355.59" r="4"/><text x="294.00" y="345.59" text-anchor="middle">0.0362</text><circle cx="362.00" cy="351.57" r="4"/><text x="362.00" y="341.57" text-anchor="middle">0.0404</text><circle cx="430.00" cy="349.70" r="4"/><text x="430.00" y="339.70" text-anchor="middle">0.0424</text><circle cx="498.00" cy="343.06" r="4"/><text x="498.00" y="333.06" text-anchor="middle">0.0493</text><circle cx="566.00" cy="299.95" r="4"/><text x="566.00" y="289.95" text-anchor="middle">0.0946</text><circle cx="634.00" cy="251.76" r="4"/><text x="634.00" y="241.76" text-anchor="middle">0.145</text><circle cx="702.00" cy="210.93" r="4"/><text x="702.00" y="200.93" text-anchor="middle">0.188</text><circle cx="770.00" cy="30.00" r="4"/><text x="770.00" y="20.00" text-anchor="middle">0.378</text><text x="158.00" y="414" text-anchor="middle">1</text><text x="226.00" y="414" text-anchor="middle">2</text><text x="294.00" y="414" text-anchor="middle">3</text><text x="362.00" y="414" text-anchor="middle">4</text><text x="430.00" y="414" text-anchor="middle">5</text><text x="498.00" y="414" text-anchor="middle">6</text><text x="566.00" y="414" text-anchor="middle">7</text><text x="634.00" y="414" text-anchor="middle">8</text><text x="702.00" y="414" text-anchor="middle">9</text><text x="770.00" y="414" text-anchor="middle">10</text>
<text x="430.0" y="442" text-anchor="middle">Allocated qubits</text>
<text transform="translate(24 210.0) rotate(-90)" text-anchor="middle">Median runtime (ms)</text>
<text x="82" y="35" text-anchor="end">0.378</text><text x="82" y="395" text-anchor="end">0</text>
</svg>