<svg xmlns="http://www.w3.org/2000/svg" width="800" height="460" viewBox="0 0 800 460" role="img" aria-labelledby="title desc">
<title id="title">Median runtime (ms) versus Allocated qubits</title><desc id="desc">Release-build medians generated from retained Clio benchmark records.</desc>
<style>text{font:14px sans-serif;fill:#222} .axis{stroke:#444;stroke-width:1.5} polyline{fill:none;stroke:#1769aa;stroke-width:2.5} circle{fill:#1769aa}</style>
<line class="axis" x1="90" y1="390" x2="770" y2="390"/><line class="axis" x1="90" y1="30" x2="90" y2="390"/>
<polyline points="158.00,310.34 226.00,331.36 294.00,333.42 362.00,327.49 430.00,323.91 498.00,311.80 566.00,289.81 634.00,243.29 702.00,172.65 770.00,30.00"/><circle cx="158.00" cy="310.34" r="4"/><text x="158.00" y="300.34" text-anchor="middle">0.0274</text><circle cx="226.00" cy="331.36" r="4"/><text x="226.00" y="321.36" text-anchor="middle">0.0202</text><circle cx="294.00" cy="333.42" r="4"/><text x="294.00" y="323.42" text-anchor="middle">0.0195</text><circle cx="362.00" cy="327.49" r="4"/><text x="362.00" y="317.49" text-anchor="middle">0.0215</text><circle cx="430.00" cy="323.91" r="4"/><text x="430.00" y="313.91" text-anchor="middle">0.0227</text><circle cx="498.00" cy="311.80" r="4"/><text x="498.00" y="301.80" text-anchor="middle">0.0269</text><circle cx="566.00" cy="289.81" r="4"/><text x="566.00" y="279.81" text-anchor="middle">0.0345</text><circle cx="634.00" cy="243.29" r="4"/><text x="634.00" y="233.29" text-anchor="middle">0.0505</text><circle cx="702.00" cy="172.65" r="4"/><text x="702.00" y="162.65" text-anchor="middle">0.0747</text><circle cx="770.00" cy="30.00" r="4"/><text x="770.00" y="20.00" text-anchor="middle">0.124</text><text x="158.00" y="414" text-anchor="middle">1</text><text x="226.00" y="414" text-anchor="middle">2</text><text x="294.00" y="414" text-anchor="middle">3</text><text x="362.00" y="414" text-anchor="middle">4</text><text x="430.00" y="414" text-anchor="middle">5</text><text x="498.00" y="414" text-anchor="middle">6</text><text x="566.00" y="414" text-anchor="middle">7</text><text x="634.00" y="414" text-anchor="middle">8</text><text x="702.00" y="414" text-anchor="middle">9</text><text x="770.00" y="414" text-anchor="middle">10</text>
<text x="430.0" y="442" text-anchor="middle">Allocated qubits</text>
<text transform="translate(24 210.0) rotate(-90)" text-anchor="middle">Median runtime (ms)</text>
<text x="82" y="35" text-anchor="end">0.124</text><text x="82" y="395" text-anchor="end">0</text>
</svg>