<svg xmlns="http://www.w3.org/2000/svg" width="800" height="460" viewBox="0 0 800 460" role="img" aria-labelledby="title desc">
<title id="title">Median runtime (ms) versus Allocated qubits</title><desc id="desc">Release-build medians generated from retained Clio benchmark records.</desc>
<style>text{font:14px sans-serif;fill:#222} .axis{stroke:#444;stroke-width:1.5} polyline{fill:none;stroke:#1769aa;stroke-width:2.5} circle{fill:#1769aa}</style>
<line class="axis" x1="90" y1="390" x2="770" y2="390"/><line class="axis" x1="90" y1="30" x2="90" y2="390"/>
<polyline points="127.78,389.75 165.56,389.77 203.33,389.75 241.11,389.73 278.89,389.71 316.67,389.66 354.44,389.56 392.22,389.39 430.00,389.08 467.78,388.42 505.56,387.13 543.33,384.55 581.11,379.16 618.89,368.83 656.67,347.86 694.44,299.25 732.22,205.84 770.00,30.00"/><circle cx="127.78" cy="389.75" r="4"/><text x="127.78" y="379.75" text-anchor="middle">0.0214</text><circle cx="165.56" cy="389.77" r="4"/><text x="165.56" y="379.77" text-anchor="middle">0.0202</text><circle cx="203.33" cy="389.75" r="4"/><text x="203.33" y="379.75" text-anchor="middle">0.0215</text><circle cx="241.11" cy="389.73" r="4"/><text x="241.11" y="379.73" text-anchor="middle">0.0235</text><circle cx="278.89" cy="389.71" r="4"/><text x="278.89" y="379.71" text-anchor="middle">0.0254</text><circle cx="316.67" cy="389.66" r="4"/><text x="316.67" y="379.66" text-anchor="middle">0.0293</text><circle cx="354.44" cy="389.56" r="4"/><text x="354.44" y="379.56" text-anchor="middle">0.0379</text><circle cx="392.22" cy="389.39" r="4"/><text x="392.22" y="379.39" text-anchor="middle">0.0531</text><circle cx="430.00" cy="389.08" r="4"/><text x="430.00" y="379.08" text-anchor="middle">0.0798</text><circle cx="467.78" cy="388.42" r="4"/><text x="467.78" y="378.42" text-anchor="middle">0.137</text><circle cx="505.56" cy="387.13" r="4"/><text x="505.56" y="377.13" text-anchor="middle">0.248</text><circle cx="543.33" cy="384.55" r="4"/><text x="543.33" y="374.55" text-anchor="middle">0.471</text><circle cx="581.11" cy="379.16" r="4"/><text x="581.11" y="369.16" text-anchor="middle">0.938</text><circle cx="618.89" cy="368.83" r="4"/><text x="618.89" y="358.83" text-anchor="middle">1.83</text><circle cx="656.67" cy="347.86" r="4"/><text x="656.67" y="337.86" text-anchor="middle">3.64</text><circle cx="694.44" cy="299.25" r="4"/><text x="694.44" y="289.25" text-anchor="middle">7.85</text><circle cx="732.22" cy="205.84" r="4"/><text x="732.22" y="195.84" text-anchor="middle">15.9</text><circle cx="770.00" cy="30.00" r="4"/><text x="770.00" y="20.00" text-anchor="middle">31.1</text><text x="127.78" y="414" text-anchor="middle">1</text><text x="165.56" y="414" text-anchor="middle">2</text><text x="203.33" y="414" text-anchor="middle">3</text><text x="241.11" y="414" text-anchor="middle">4</text><text x="278.89" y="414" text-anchor="middle">5</text><text x="316.67" y="414" text-anchor="middle">6</text><text x="354.44" y="414" text-anchor="middle">7</text><text x="392.22" y="414" text-anchor="middle">8</text><text x="430.00" y="414" text-anchor="middle">9</text><text x="467.78" y="414" text-anchor="middle">10</text><text x="505.56" y="414" text-anchor="middle">11</text><text x="543.33" y="414" text-anchor="middle">12</text><text x="581.11" y="414" text-anchor="middle">13</text><text x="618.89" y="414" text-anchor="middle">14</text><text x="656.67" y="414" text-anchor="middle">15</text><text x="694.44" y="414" text-anchor="middle">16</text><text x="732.22" y="414" text-anchor="middle">17</text><text x="770.00" y="414" text-anchor="middle">18</text>
<text x="430.0" y="442" text-anchor="middle">Allocated qubits</text>
<text transform="translate(24 210.0) rotate(-90)" text-anchor="middle">Median runtime (ms)</text>
<text x="82" y="35" text-anchor="end">31.1</text><text x="82" y="395" text-anchor="end">0</text>
</svg>