<svg xmlns="http://www.w3.org/2000/svg" width="800" height="460" viewBox="0 0 800 460" role="img" aria-labelledby="title desc">
<title id="title">Median runtime (ms) versus Allocated qubits</title><desc id="desc">Release-build medians generated from retained Clio benchmark records.</desc>
<style>text{font:14px sans-serif;fill:#222} .axis{stroke:#444;stroke-width:1.5} polyline{fill:none;stroke:#1769aa;stroke-width:2.5} circle{fill:#1769aa}</style>
<line class="axis" x1="90" y1="390" x2="770" y2="390"/><line class="axis" x1="90" y1="30" x2="90" y2="390"/>
<polyline points="127.78,389.77 165.56,389.78 203.33,389.77 241.11,389.76 278.89,389.74 316.67,389.69 354.44,389.61 392.22,389.45 430.00,389.14 467.78,388.54 505.56,387.27 543.33,385.00 581.11,378.16 618.89,370.64 656.67,354.48 694.44,321.34 732.22,247.63 770.00,30.00"/><circle cx="127.78" cy="389.77" r="4"/><text x="127.78" y="379.77" text-anchor="middle">0.0355</text><circle cx="165.56" cy="389.78" r="4"/><text x="165.56" y="379.78" text-anchor="middle">0.0344</text><circle cx="203.33" cy="389.77" r="4"/><text x="203.33" y="379.77" text-anchor="middle">0.0356</text><circle cx="241.11" cy="389.76" r="4"/><text x="241.11" y="379.76" text-anchor="middle">0.0377</text><circle cx="278.89" cy="389.74" r="4"/><text x="278.89" y="379.74" text-anchor="middle">0.0412</text><circle cx="316.67" cy="389.69" r="4"/><text x="316.67" y="379.69" text-anchor="middle">0.048</text><circle cx="354.44" cy="389.61" r="4"/><text x="354.44" y="379.61" text-anchor="middle">0.0614</text><circle cx="392.22" cy="389.45" r="4"/><text x="392.22" y="379.45" text-anchor="middle">0.0858</text><circle cx="430.00" cy="389.14" r="4"/><text x="430.00" y="379.14" text-anchor="middle">0.134</text><circle cx="467.78" cy="388.54" r="4"/><text x="467.78" y="378.54" text-anchor="middle">0.229</text><circle cx="505.56" cy="387.27" r="4"/><text x="505.56" y="377.27" text-anchor="middle">0.427</text><circle cx="543.33" cy="385.00" r="4"/><text x="543.33" y="375.00" text-anchor="middle">0.781</text><circle cx="581.11" cy="378.16" r="4"/><text x="581.11" y="368.16" text-anchor="middle">1.85</text><circle cx="618.89" cy="370.64" r="4"/><text x="618.89" y="360.64" text-anchor="middle">3.03</text><circle cx="656.67" cy="354.48" r="4"/><text x="656.67" y="344.48" text-anchor="middle">5.55</text><circle cx="694.44" cy="321.34" r="4"/><text x="694.44" y="311.34" text-anchor="middle">10.7</text><circle cx="732.22" cy="247.63" r="4"/><text x="732.22" y="237.63" text-anchor="middle">22.3</text><circle cx="770.00" cy="30.00" r="4"/><text x="770.00" y="20.00" text-anchor="middle">56.3</text><text x="127.78" y="414" text-anchor="middle">1</text><text x="165.56" y="414" text-anchor="middle">2</text><text x="203.33" y="414" text-anchor="middle">3</text><text x="241.11" y="414" text-anchor="middle">4</text><text x="278.89" y="414" text-anchor="middle">5</text><text x="316.67" y="414" text-anchor="middle">6</text><text x="354.44" y="414" text-anchor="middle">7</text><text x="392.22" y="414" text-anchor="middle">8</text><text x="430.00" y="414" text-anchor="middle">9</text><text x="467.78" y="414" text-anchor="middle">10</text><text x="505.56" y="414" text-anchor="middle">11</text><text x="543.33" y="414" text-anchor="middle">12</text><text x="581.11" y="414" text-anchor="middle">13</text><text x="618.89" y="414" text-anchor="middle">14</text><text x="656.67" y="414" text-anchor="middle">15</text><text x="694.44" y="414" text-anchor="middle">16</text><text x="732.22" y="414" text-anchor="middle">17</text><text x="770.00" y="414" text-anchor="middle">18</text>
<text x="430.0" y="442" text-anchor="middle">Allocated qubits</text>
<text transform="translate(24 210.0) rotate(-90)" text-anchor="middle">Median runtime (ms)</text>
<text x="82" y="35" text-anchor="end">56.3</text><text x="82" y="395" text-anchor="end">0</text>
</svg>