<svg xmlns="http://www.w3.org/2000/svg" width="800" height="460" viewBox="0 0 800 460" role="img" aria-labelledby="title desc">
<title id="title">Median runtime (ms) versus Circuit depth</title><desc id="desc">Release-build medians generated from retained Clio benchmark records.</desc>
<style>text{font:14px sans-serif;fill:#222} .axis{stroke:#444;stroke-width:1.5} polyline{fill:none;stroke:#1769aa;stroke-width:2.5} circle{fill:#1769aa}</style>
<line class="axis" x1="90" y1="390" x2="770" y2="390"/><line class="axis" x1="90" y1="30" x2="90" y2="390"/>
<polyline points="91.33,386.03 100.62,381.85 132.50,364.31 260.00,296.71 770.00,30.00"/><circle cx="91.33" cy="386.03" r="4"/><text x="91.33" y="376.03" text-anchor="middle">0.0086</text><circle cx="100.62" cy="381.85" r="4"/><text x="100.62" y="371.85" text-anchor="middle">0.0177</text><circle cx="132.50" cy="364.31" r="4"/><text x="132.50" y="354.31" text-anchor="middle">0.0557</text><circle cx="260.00" cy="296.71" r="4"/><text x="260.00" y="286.71" text-anchor="middle">0.202</text><circle cx="770.00" cy="30.00" r="4"/><text x="770.00" y="20.00" text-anchor="middle">0.781</text><text x="91.33" y="414" text-anchor="middle">1</text><text x="100.62" y="414" text-anchor="middle">8</text><text x="132.50" y="414" text-anchor="middle">32</text><text x="260.00" y="414" text-anchor="middle">128</text><text x="770.00" y="414" text-anchor="middle">512</text>
<text x="430.0" y="442" text-anchor="middle">Circuit depth</text>
<text transform="translate(24 210.0) rotate(-90)" text-anchor="middle">Median runtime (ms)</text>
<text x="82" y="35" text-anchor="end">0.781</text><text x="82" y="395" text-anchor="end">0</text>
</svg>