<svg xmlns="http://www.w3.org/2000/svg" width="800" height="460" viewBox="0 0 800 460" role="img" aria-labelledby="title desc">
<title id="title">Median runtime (ms) versus Circuit depth</title><desc id="desc">Release-build medians generated from retained Clio benchmark records.</desc>
<style>text{font:14px sans-serif;fill:#222} .axis{stroke:#444;stroke-width:1.5} polyline{fill:none;stroke:#1769aa;stroke-width:2.5} circle{fill:#1769aa}</style>
<line class="axis" x1="90" y1="390" x2="770" y2="390"/><line class="axis" x1="90" y1="30" x2="90" y2="390"/>
<polyline points="91.33,385.64 100.62,380.91 132.50,364.03 260.00,297.40 770.00,30.00"/><circle cx="91.33" cy="385.64" r="4"/><text x="91.33" y="375.64" text-anchor="middle">0.00773</text><circle cx="100.62" cy="380.91" r="4"/><text x="100.62" y="370.91" text-anchor="middle">0.0161</text><circle cx="132.50" cy="364.03" r="4"/><text x="132.50" y="354.03" text-anchor="middle">0.0461</text><circle cx="260.00" cy="297.40" r="4"/><text x="260.00" y="287.40" text-anchor="middle">0.164</text><circle cx="770.00" cy="30.00" r="4"/><text x="770.00" y="20.00" text-anchor="middle">0.639</text><text x="91.33" y="414" text-anchor="middle">1</text><text x="100.62" y="414" text-anchor="middle">8</text><text x="132.50" y="414" text-anchor="middle">32</text><text x="260.00" y="414" text-anchor="middle">128</text><text x="770.00" y="414" text-anchor="middle">512</text>
<text x="430.0" y="442" text-anchor="middle">Circuit depth</text>
<text transform="translate(24 210.0) rotate(-90)" text-anchor="middle">Median runtime (ms)</text>
<text x="82" y="35" text-anchor="end">0.639</text><text x="82" y="395" text-anchor="end">0</text>
</svg>